<svg width="44" height="44" viewBox="0 0 44 44" fill="none" xmlns="http://www.w3.org/2000/svg">
<path d="M22.1317 -1.40516e-07L15.2814 1.04762L11.0659 3.01961C10.7146 3.06069 9.95928 3.24762 9.7485 3.66667C9.53772 4.08571 8.07984 4.53968 7.37725 4.71429L5.26946 6.80952L3.42515 9.95238L1.58084 13.619L0.790419 16.2381L1.26377e-07 19.9048L1.52983e-07 24.0952L1.79589e-07 28.2857L0.526946 31.9524L1.58084 36.1429L2.8982 39.2857L3.9521 40.8571L5.53293 42.4286L7.11377 43.4762L8.69461 44L11.0659 43.4762C11.6806 43.127 12.8575 42.4286 12.6467 42.4286C12.4359 42.4286 13.7884 41.381 14.491 40.8571L16.5988 39.2857L18.9701 37.1905L20.8144 35.619L22.9222 34.0476L24.503 32.4762L26.3473 32.4762L28.982 32.4762L31.3533 32.4762C31.7924 32.4762 33.0922 32.581 34.7784 33C36.4647 33.419 36.8862 33.1746 36.8862 33L38.7305 32.4762L40.3114 31.4286L41.3653 29.8571L42.1557 28.2857L42.9461 26.7143L43.7365 24.0952L44 20.9524L44 17.8095L43.7365 14.6667L42.9461 12.0476L42.4192 10.4762L40.5749 7.33333L37.9401 4.71429L34.7784 2.61905L31.3533 0.523809L28.4551 -1.80664e-07L22.1317 -1.40516e-07Z" fill="#8AD8FF"/>
</svg>
