<svg width="72" height="60" viewBox="0 0 72 60" fill="none" xmlns="http://www.w3.org/2000/svg">
<path fill-rule="evenodd" clip-rule="evenodd" d="M2.72508 0.320746C1.78589 0.96774 1.78609 0.96617 1.67785 11.1136L1.5754 20.738L0.782997 22.4075C-0.526239 25.166 -0.293391 26.162 2.2434 28.6571C5.13547 31.5016 7.8434 33.2135 9.43941 33.2061C10.5989 33.2008 11.8224 32.6669 12.5054 31.8685C13.8939 30.2455 13.9147 27.9814 12.5887 22.8078C12.0775 20.8134 11.6022 18.7047 11.5327 18.1219C11.4264 17.2333 11.3705 17.1212 11.1868 17.427C10.7806 18.1029 10.9617 21.353 11.5407 23.7824C12.3175 27.0421 12.4295 28.9574 11.9109 30.1104C11.2082 31.6728 9.82303 32.1816 8.19727 31.4745C6.39038 30.6882 2.64381 27.5076 1.74216 25.9945C1.10651 24.9277 1.14685 24.7612 3.03662 20.6643C4.18729 18.1698 4.52039 17.6342 5.56722 16.5952C8.28095 13.9019 13.024 12.7523 17.5928 13.6806C20.6596 14.3036 22.1286 15.134 22.8581 16.657C23.47 17.9343 24.1809 18.643 25.0923 18.8844C25.5129 18.9958 27.6587 19.343 29.861 19.6561C32.0631 19.9692 33.9866 20.3247 34.1354 20.4461C34.8982 21.0687 34.5539 22.9449 33.1488 25.8224C32.0816 28.0083 30.9699 29.2895 29.5464 29.9744C28.6346 30.4132 28.0581 30.5195 25.7781 30.6688C22.5254 30.8817 21.1996 31.3034 19.834 32.5598C18.1979 34.065 16.7826 37.462 16.6252 40.2617C16.5883 40.9185 16.4114 41.3192 15.8879 41.9312C14.8335 43.1641 13.8478 44.7475 13.1381 46.3482L12.4946 47.7992L12.2746 46.9375C10.9573 41.7804 8.75144 37.5806 5.32278 33.7014C4.06907 32.2829 2.08505 30.4606 1.79468 30.4606C1.73197 30.4606 1.68085 36.4929 1.68105 43.8659C1.68125 56.235 1.70821 57.3246 2.03053 57.9588C2.68255 59.2425 3.13127 59.3331 8.8461 59.3333L13.9147 59.3337L13.7911 58.5971C13.7232 58.1921 13.5624 56.9137 13.4336 55.7562C12.7636 49.7303 14.9577 44.0237 19.1223 40.9604C20.365 40.046 23.4853 38.448 24.4946 38.2088L25.0422 38.0791L25.0937 48.6573L25.1454 59.2355L32.4844 59.2869L39.8234 59.3386L39.8094 40.9221C39.8017 30.7931 39.7182 22.3289 39.6237 22.1129C39.4811 21.7866 39.4498 21.8312 39.438 22.3767C39.4304 22.7379 39.2395 23.9311 39.0138 25.0283C38.4199 27.9162 37.3743 29.943 35.5596 31.7235C33.6167 33.6297 31.565 34.6501 27.0382 35.9612C22.9545 37.144 21.1263 37.8588 19.437 38.9326C18.7622 39.3615 18.1799 39.6829 18.143 39.6465C18.0237 39.5293 18.6953 36.8612 18.9843 36.3039C19.2555 35.7815 19.3176 35.7638 20.8918 35.7638C22.24 35.7638 23.1379 35.5929 26.1288 34.7674C30.2186 33.6386 32.014 32.8665 33.7162 31.5043C36.0779 29.6146 37.2209 27.2032 37.6199 23.2694C37.7394 22.0932 37.9221 20.2856 38.0263 19.2527C38.2212 17.3192 38.8004 15.124 39.2888 14.467C39.453 14.246 39.6942 14.1425 39.8807 14.213C40.0539 14.2784 40.8533 15.1193 41.6571 16.0817L43.1185 17.8318L45.6185 17.8118C48.0948 17.7919 48.1318 17.7982 49.5127 18.4792C50.6406 19.0354 51.1241 19.4328 52.0451 20.5606C52.9787 21.7043 53.3993 22.0469 54.3856 22.4676C55.7591 23.0535 55.9315 23.3823 55.713 25.0022C55.4162 27.2012 54.38 28.312 51.9676 29.0165C50.6943 29.3885 49.5744 30.3963 48.9975 31.6897C48.4729 32.8659 48.384 34.7705 48.6875 38.3343C48.9935 41.9273 48.1735 44.3236 45.3411 48.1134C43.5041 50.5716 42.806 51.7634 42.2368 53.4133C41.7452 54.8389 41.3617 57.3187 41.4566 58.4608C41.5181 59.2009 41.5542 59.2382 42.2698 59.2964L43.0186 59.3575V57.784C43.0186 54.6268 43.8168 52.6216 46.5785 48.8411C49.19 45.266 49.8648 43.7288 50.1635 40.6742L50.3077 39.2011L53.0037 39.0679C60.7047 38.6872 66.3916 35.191 69.3993 28.9874C72.0441 23.5324 72.2338 16.4974 69.8841 11.0048C67.6371 5.75223 63.4506 2.26467 57.4524 0.648565L55.4999 0.122565L40.2748 0.061281L25.0496 0L24.9977 8.89587L24.9457 17.7917L24.2111 16.4003C23.1003 14.2967 21.8682 13.403 18.9547 12.5877L17.7565 12.2524L17.6567 6.87082C17.5862 3.06743 17.4831 1.36254 17.3056 1.05731C16.7035 0.0219977 16.6606 0.0161062 9.66866 0.0161062C4.11739 0.0161062 3.10272 0.0606916 2.72508 0.320746ZM52.7017 12.4062C54.0567 12.9049 55.201 14.1054 55.7911 15.6471C56.1697 16.637 56.2244 17.1015 56.1585 18.7738C56.116 19.8541 55.9698 20.9367 55.8336 21.1797C55.5952 21.605 55.558 21.6103 54.8439 21.3243C54.4359 21.1609 53.8773 20.7684 53.6028 20.4522C53.3282 20.136 52.7105 19.4261 52.2304 18.8748C51.2738 17.7764 49.9528 17.0184 48.4391 16.6991C47.5177 16.5048 47.4536 16.4504 47.3388 15.7673C47.2717 15.3684 47.2157 14.7275 47.2145 14.3429C47.2133 13.9585 47.0827 13.4724 46.9246 13.2626C46.5022 12.7032 46.0974 13.0208 44.8301 14.9062L43.7459 16.5192L43.148 15.7804C42.8191 15.3743 41.9816 14.4851 41.2866 13.8047C40.1525 12.6942 39.8528 12.231 40.106 11.9812C40.1517 11.9362 42.765 11.9252 45.9135 11.957C51.054 12.0091 51.7465 12.0548 52.7017 12.4062ZM39.8446 16.6244C39.7244 17.0505 39.6255 17.7855 39.6249 18.2576C39.6239 18.996 39.6655 19.0824 39.9211 18.8738C40.1589 18.6797 40.374 18.6925 40.9967 18.9374C41.4248 19.106 41.8286 19.1914 41.8937 19.1274C42.0237 18.9993 41.0308 17.0929 40.4367 16.3298L40.0631 15.85L39.8446 16.6244ZM18.9689 17.6093C18.5977 17.9746 18.5555 18.8919 18.8948 19.2256C19.285 19.6094 20.4082 19.5169 20.6452 19.0814C21.2928 17.8911 19.9137 16.6802 18.9689 17.6093Z" fill="black"/>
</svg>
