<svg width="44" height="44" viewBox="0 0 44 44" fill="none" xmlns="http://www.w3.org/2000/svg">
<path d="M2.53846 11.3956C2.96154 10.339 4.31538 7.86345 6.34615 6.41436L10.1538 3.69733L12.6923 2.79165L19.8846 0.527455L22 -1.3968e-07L28.7692 0.325416L31.7308 1.43314L36.8077 4.15018L39.7692 6.41437L41.4615 8.67856L43.5769 11.8484L44 13.6598L44 15.0183L43.8749 16.8297L43.5769 18.1882L42.3077 20.4524L40.6154 23.1694L39.7692 26.7921L39.3462 28.6035L39.3462 30.4148L39.7692 32.2262L39.7692 34.4904L39.3462 36.3017L38.5 38.1131L37.6538 40.3773L36.8077 41.283L35.1154 42.6415L33 44L30.8846 44L29.1923 44L27.5 43.5472L26.2308 42.6415L24.1154 41.283L22.8462 39.4716L21.5769 38.1131L20.3077 36.7546L19.0385 35.3961C18.8974 35.0942 18.3615 34.3998 17.3462 34.0375C16.3308 33.6753 14.9487 33.2828 14.3846 33.1319L12.6923 33.1319C11.5641 33.1319 9.05385 33.0413 8.03846 32.679C7.02308 32.3168 5.64103 31.6224 5.07692 31.3205L2.96154 29.962L1.69231 28.3827L0.846154 26.7921L1.58605e-07 24.9808L1.38479e-07 21.8109L1.18354e-07 18.641L1.09728e-07 17.2825L0.0615984 15.924L0.0670193 15.8044L0.207595 15.5536L2.53846 11.3956Z" fill="#8AD8FF"/>
</svg>
