<svg width="44" height="44" viewBox="0 0 44 44" fill="none" xmlns="http://www.w3.org/2000/svg">
<path d="M26.819 -1.70277e-07L25.5619 -1.62295e-07L23.8857 -1.51653e-07L21.3714 0.417716L19.6952 1.25315L18.8572 1.67086L17.181 2.92401L15.0857 6.26574L13.8286 9.60746L13.4095 12.1138L13.4095 13.7846L12.1524 15.4555L11.3143 17.1263L10.0571 18.3795L7.96191 19.6326L5.44762 20.8858L2.93333 23.8098L1.25714 25.8984L1.82996e-07 28.8224L2.04213e-07 32.1641L0.419048 35.9235L1.25714 38.0121L2.51429 39.683L4.60953 41.7716L7.12381 43.4424L9.21905 44L12.5714 43.8601L15.9238 43.4424L17.3498 42.607L19.6952 40.9361L22.2095 39.2653L24.7238 38.0121L28.0762 38.0121L31.4286 38.0121L33.1048 38.0121L35.2 38.0121L36.4571 38.0121L37.7143 37.1767L39.8095 35.5058L42.3238 32.1641L43.581 29.6578L44 25.8984L44 22.9744L44 18.7972L43.581 15.4555L42.3238 12.1138L41.9048 11.696C41.9048 11.5568 41.821 11.1112 41.4857 10.4429C41.821 10.1087 39.3905 7.24041 38.1333 5.84802L36.4571 4.17716C35.7867 3.50881 35.3397 3.34173 35.2 3.34173C34.7809 3.06325 33.7752 2.42275 33.1048 2.08858C32.4343 1.75441 31.7079 1.11391 31.4286 0.835431L28.4952 0.417716L26.819 -1.70277e-07Z" fill="#8AD8FF"/>
</svg>
