<svg width="375" height="504" viewBox="0 0 375 504" fill="none" xmlns="http://www.w3.org/2000/svg">
<g filter="url(#filter0_d_2092_250)">
<path d="M298.455 429.177L281.192 428.528L267.917 427.059C267.646 427.029 266.187 426.642 262.526 425.334C258.866 424.027 254.664 423.071 253.02 422.756L244 419.927C241.535 419.455 236.344 417.892 235.5 417.427C234.656 416.962 230.844 414.972 229.085 414.003L219.145 408.529L211.496 403.431L202.005 395.546L197.082 391.949L191.11 385.117L184.243 374.754L176.725 363.021L172.177 350.774L169.748 337.035L170.471 330.347L171.563 317.661L173 300.427L173.397 296.457C173.466 295.772 173.465 295.081 173.397 294.394L173 290.427L171 275.427L167.485 262.268L164.5 254.927L157.321 242.498L150.656 231.741L142.227 221.784L134.499 213.099L128.528 206.267L120.799 198.467L115.176 192.713L110.26 186.463L103.587 178.359L95.5052 170.365L90.5001 164.927L86.3749 159.136L82.8688 152.776L79.0084 147.107L75.1481 141.437L72.3432 136.349L70.7721 131.495L69.5527 125.955L68.1575 120.757L67.8322 115.427L67.8322 110.835L68.902 106.109L69.6176 102.074L73.1599 95.1673L76.3478 88.951L79.8828 84.6973L85.5359 78.9528L93.2999 74.3709L100.355 71.1703L111.286 68.3322L121.5 66.9268L132.785 66L142.5 66L154.277 66.3212L168.513 67.5935L178.227 69.7677L186.677 71.7645L195.5 73.9268L202.169 75.8675L213.786 79.6081L221.182 81.0237L232.799 84.7643L243.708 89.8863L258 96.4269C258 96.4269 263.724 99.5902 267.636 101.293C274.951 104.477 285.578 111.175 285.578 111.175L303.868 123.019L321.803 135.554L334.816 144.492L344.307 152.377L360.479 165.712L369.616 174.287L376.997 181.01L385.781 190.276L394.911 201.505L404.742 214.006L414.22 227.197L428.953 251.256L432.105 258.306L437.707 271.135L440.852 280.839L442.594 287.999L443.989 293.197L445.023 301.738L445.009 307.045C444.77 308.39 444.432 311.865 444.987 315.005L446.028 320.893L446.353 330.816L443.151 342.339L432.17 363.751L426.51 372.149L419.093 378.693L413.44 384.438L401.787 393.964L393.307 402.581L385.897 406.472C384.133 407.272 379.053 409.789 372.842 413.455C366.63 417.12 365.5 417.427 365.5 417.427L354.147 420.875L344.981 422.913L337.224 424.841L326.294 427.679L313.5 429.177L298.455 429.177Z" fill="#8AD8FF"/>
</g>
<defs>
<filter id="filter0_d_2092_250" x="-2.16785" y="0" width="518.521" height="503.177" filterUnits="userSpaceOnUse" color-interpolation-filters="sRGB">
<feFlood flood-opacity="0" result="BackgroundImageFix"/>
<feColorMatrix in="SourceAlpha" type="matrix" values="0 0 0 0 0 0 0 0 0 0 0 0 0 0 0 0 0 0 127 0" result="hardAlpha"/>
<feOffset dy="4"/>
<feGaussianBlur stdDeviation="35"/>
<feComposite in2="hardAlpha" operator="out"/>
<feColorMatrix type="matrix" values="0 0 0 0 0.541176 0 0 0 0 0.847059 0 0 0 0 1 0 0 0 0.8 0"/>
<feBlend mode="normal" in2="BackgroundImageFix" result="effect1_dropShadow_2092_250"/>
<feBlend mode="normal" in="SourceGraphic" in2="effect1_dropShadow_2092_250" result="shape"/>
</filter>
</defs>
</svg>
